Coordinates
version=1
nRows=16
nColumns=40
inDegrees=yes

Units are S.I. units (second, meters, Newtons, ...)
Angles are in degrees.

endheader
time	pelvis_tilt	pelvis_list	pelvis_rotation	pelvis_tx	pelvis_ty	pelvis_tz	hip_flexion_r	hip_adduction_r	hip_rotation_r	knee_angle_r	knee_angle_r_beta	ankle_angle_r	subtalar_angle_r	mtp_angle_r	hip_flexion_l	hip_adduction_l	hip_rotation_l	knee_angle_l	knee_angle_l_beta	ankle_angle_l	subtalar_angle_l	mtp_angle_l	lumbar_extension	lumbar_bending	lumbar_rotation	arm_flex_r	arm_add_r	arm_rot_r	elbow_flex_r	pro_sup_r	wrist_flex_r	wrist_dev_r	arm_flex_l	arm_add_l	arm_rot_l	elbow_flex_l	pro_sup_l	wrist_flex_l	wrist_dev_l
      0.00000000	     -3.88997788	      3.45247571	     -1.29399097	     -0.96856939	      0.93117014	     -1.05378747	     31.83267958	    -11.76720949	    -21.44260672	    -15.25084092	     -0.26617739	     -2.94651112	      4.45128986	     -1.68958054	     -6.17879139	     -1.99404225	     20.69044062	    -10.43220864	     -0.18207639	      7.81465492	      0.78977424	    -13.13517344	     -5.08611710	     -2.48286916	     -4.59273883	      0.93339572	     -7.93099790	    -21.90599956	     19.87436036	     89.95437384	      0.00000000	      0.00000000	     10.16140710	     16.49154773	      0.93768187	     25.86312367	     89.95437384	      0.00000000	      0.00000000
      0.01000000	     -3.76194211	      3.27868594	     -1.23575463	     -0.96124690	      0.93050591	     -1.05224988	     31.67741437	    -11.68401719	    -21.45171658	    -16.28308189	     -0.28419339	     -2.84036007	      3.56098365	     -1.67345510	     -6.76733777	     -1.68133291	     20.56644827	    -10.54997770	     -0.18413185	      8.00544972	      0.83027020	    -13.05970517	     -5.16535340	     -2.10608318	     -4.77568447	      0.80899232	     -8.04337544	    -21.91424958	     19.52297973	     89.95437384	      0.00000000	      0.00000000	     10.21242581	     16.29958916	      0.78911060	     25.65693822	     89.95437384	      0.00000000	      0.00000000
      0.02000000	     -3.40301243	      2.86280420	     -1.06380911	     -0.95380547	      0.93042379	     -1.05016765	     30.96590491	    -11.17202129	    -21.10391591	    -16.93493909	     -0.29557045	     -2.96565474	      1.20341805	     -1.15323911	     -7.51942597	     -0.96042542	     20.68571860	    -10.84538102	     -0.18928761	      7.90509307	      0.49716525	    -13.41789296	     -5.51630156	     -1.50819896	     -5.14785416	      0.74393157	     -8.03774503	    -22.31589638	     19.25369957	     89.95437384	      0.00000000	      0.00000000	     10.23353343	     16.11825972	      0.94818994	     25.45141890	     89.95437384	      0.00000000	      0.00000000
      0.03000000	     -3.42209765	      2.72886578	     -0.93673560	     -0.94626994	      0.92965997	     -1.04811423	     30.78243601	    -11.05570800	    -20.91698244	    -17.89792221	     -0.31237767	     -2.95018136	      0.71212437	     -1.10111179	     -7.87113053	     -0.59564086	     20.65089137	    -11.11567389	     -0.19400511	      7.97903050	      0.55285947	    -13.27327403	     -5.42026881	     -1.20767247	     -5.37324553	      0.52650318	     -8.08679185	    -22.25876692	     19.01503194	     89.95437384	      0.00000000	      0.00000000	     10.12967028	     15.97631222	      0.86482813	     25.38264479	     89.95437384	      0.00000000	      0.00000000
      0.04000000	     -2.93447979	      2.04684457	     -0.84605812	     -0.93816647	      0.92973155	     -1.04517184	     29.73291542	    -10.14158779	    -20.80261509	    -18.50871478	     -0.32303801	     -2.73247586	     -1.66026815	      0.85574106	     -8.68414066	      0.63807900	     21.53355361	    -11.76384814	     -0.20531788	      7.61160262	     -1.08544789	    -14.36551048	     -5.85525490	     -0.37404924	     -5.52661946	      0.34149363	     -8.11002843	    -22.69880342	     18.81976351	     89.95437384	      0.00000000	      0.00000000	     10.08018353	     15.78399288	      1.04819963	     25.24735975	     89.95437384	      0.00000000	      0.00000000
      0.05000000	     -2.63766890	      1.84037591	     -0.64845103	     -0.92996815	      0.92950827	     -1.04270015	     28.94901162	     -9.89502936	    -20.87608820	    -19.31768348	     -0.33715718	     -2.38889032	     -2.40390046	      1.11541738	     -9.41385156	      1.13127347	     21.44059237	    -12.01831416	     -0.20975915	      7.42198222	     -0.92435972	    -14.28267595	     -6.02322148	     -0.03583250	     -5.81840154	      0.24712923	     -8.15528356	    -22.75223154	     18.32538840	     89.95437384	      0.00000000	      0.00000000	      9.87899965	     15.68033610	      0.88793428	     25.24350172	     89.95437384	      0.00000000	      0.00000000
      0.06000000	     -2.57249378	      1.78491918	     -0.53810774	     -0.92151783	      0.92880256	     -1.04009528	     28.44325356	     -9.77691554	    -20.83482129	    -20.07094899	     -0.35030414	     -2.29830553	     -2.79667212	      1.21094754	     -9.90144285	      1.45480841	     21.40133989	    -12.29600140	     -0.21460571	      7.40598668	     -0.80857409	    -14.12993671	     -5.88386544	      0.15385619	     -6.01450836	     -0.06340042	     -8.20778543	    -22.76546057	     18.15074043	     89.95437384	      0.00000000	      0.00000000	      9.61120424	     15.54198992	      0.80023328	     25.14177583	     89.95437384	      0.00000000	      0.00000000
      0.07000000	     -1.84178449	      1.18427943	     -0.33490358	     -0.91299345	      0.92965206	     -1.03704134	     26.99252770	     -9.14049223	    -22.14975020	    -19.95937451	     -0.34835680	     -3.31969163	     -4.03356941	      2.22189881	    -11.10669879	      2.46960017	     21.32616884	    -12.61287334	     -0.22013617	      6.88034092	     -1.07006491	    -14.25519764	     -6.57329177	      0.92001369	     -6.19126248	     -0.15469604	     -8.21098296	    -23.46673014	     17.79142850	     89.95437384	      0.00000000	      0.00000000	      9.50306988	     15.30396988	      0.91179796	     25.08302475	     89.95437384	      0.00000000	      0.00000000
      0.08000000	     -1.66081923	      0.84696017	     -0.35030736	     -0.90509770	      0.92980755	     -1.03389932	     26.52438278	     -8.81288179	    -22.95397977	    -19.89576605	     -0.34724662	     -4.50567422	     -4.35175196	      2.56544981	    -11.55386831	      3.16886609	     21.39497409	    -13.17781273	     -0.22999622	      6.51971237	     -0.93090701	    -14.19096599	     -6.66610543	      1.39951063	     -6.14802719	     -0.22230792	     -8.30594942	    -23.57490908	     17.29538977	     89.95437384	      0.00000000	      0.00000000	      9.44357840	     15.00507673	      1.00258151	     24.77902085	     89.95437384	      0.00000000	      0.00000000
      0.09000000	     -1.77077891	      0.94766319	     -0.38892707	     -0.89728455	      0.92937895	     -1.03052892	     26.59879072	     -8.90772626	    -22.57475591	    -20.17254051	     -0.35207725	     -4.62721514	     -4.16863887	      2.53202395	    -11.67394140	      3.37378924	     21.09862992	    -13.74516663	     -0.23989841	      6.30218235	     -0.81309223	    -13.91118344	     -6.42469590	      1.35736480	     -6.14505607	     -0.61755437	     -8.26719877	    -23.50972908	     17.43804313	     89.95437384	      0.00000000	      0.00000000	      9.10130918	     14.89193311	      1.02229870	     24.90934882	     89.95437384	      0.00000000	      0.00000000
      0.10000000	     -1.30119181	     -0.10627459	     -0.25323261	     -0.88880700	      0.93045348	     -1.02676538	     25.40522953	     -7.85474144	    -23.60183148	    -19.63104492	     -0.34262637	     -6.21527361	     -3.00019308	      2.34090587	    -12.24097342	      5.08878710	     21.55391768	    -14.81376287	     -0.25854894	      5.84184164	     -0.68492936	    -14.03137859	     -6.81988733	      2.62477842	     -6.17868132	     -0.43590664	     -8.36467813	    -24.36201091	     16.65813414	     89.95437384	      0.00000000	      0.00000000	      9.10789704	     14.37434300	      1.61382647	     24.30766757	     89.95437384	      0.00000000	      0.00000000
      0.11000000	     -1.29959555	     -0.24865942	     -0.44012693	     -0.88069760	      0.93059672	     -1.02281994	     25.45869551	     -7.71968364	    -23.66871819	    -20.74761254	     -0.36211415	     -6.46673141	     -3.15413727	      2.21762565	    -12.40156710	      5.60806455	     21.43431117	    -15.58402513	     -0.27199255	      5.29152725	     -0.44101053	    -13.68577377	     -6.66265836	      2.80936810	     -6.01045463	     -0.63693931	     -8.40120001	    -24.25452251	     16.40307989	     89.95437384	      0.00000000	      0.00000000	      8.79716705	     14.17469638	      1.68359371	     24.21672831	     89.95437384	      0.00000000	      0.00000000
      0.12000000	     -1.29759231	     -0.46040454	     -0.60220013	     -0.87220882	      0.93094970	     -1.01876826	     25.37042364	     -7.45054653	    -24.12173439	    -21.75053865	     -0.37961851	     -6.00489016	     -3.57200962	      1.96805371	    -12.49402889	      6.23416479	     21.39431997	    -16.51196408	     -0.28818814	      4.61415255	     -0.10131009	    -13.35339268	     -6.47891166	      3.07004583	     -5.80615044	     -0.76388855	     -8.46417411	    -24.21314809	     15.95679578	     89.95437384	      0.00000000	      0.00000000	      8.49896061	     13.88344921	      1.89438487	     23.98054073	     89.95437384	      0.00000000	      0.00000000
      0.13000000	     -1.30510760	     -1.12227043	     -0.62722169	     -0.86375052	      0.93161508	     -1.01457464	     24.93901884	     -6.51466822	    -24.39912667	    -22.02814897	     -0.38446373	     -5.73004975	     -3.67684206	      1.27554947	    -12.33677989	      7.57604196	     21.51825295	    -17.97732355	     -0.31376349	      3.88971743	     -0.55783132	    -13.34509801	     -6.26798223	      3.82931960	     -5.87565240	     -0.68454134	     -8.53220900	    -24.51260825	     15.41490939	     89.95437384	      0.00000000	      0.00000000	      8.12905233	     13.39955391	      3.10132008	     23.68771934	     89.95437384	      0.00000000	      0.00000000
      0.14000000	     -1.21770312	     -1.62236235	     -0.87268184	     -0.85522109	      0.93254422	     -1.01012250	     24.44885394	     -5.54172149	    -23.93869479	    -22.27405305	     -0.38875556	     -5.58233649	     -4.05055908	      0.46845466	    -12.37340966	      8.64795394	     21.80583122	    -19.25500366	     -0.33606321	      2.86968809	     -0.61003586	    -13.18598627	     -6.17657959	      4.38756973	     -5.62071104	     -0.77993789	     -8.65403200	    -24.30356971	     15.07775025	     89.95437384	      0.00000000	      0.00000000	      7.73683944	     13.05885455	      3.44724819	     23.55448550	     89.95437384	      0.00000000	      0.00000000
      0.15000000	     -1.14667634	     -1.71348976	     -1.21805126	     -0.84676699	      0.93358385	     -1.00567871	     24.11467725	     -5.11775044	    -23.53587819	    -22.91979044	     -0.40002581	     -4.99909726	     -4.13138278	      0.28555876	    -12.37729059	      9.10694542	     21.45687476	    -20.44547811	     -0.35684091	      1.73760716	     -0.03329864	    -12.67224017	     -6.05413285	      4.46306050	     -5.24946858	     -0.90448673	     -8.72516368	    -24.05490484	     14.78092663	     89.95437384	      0.00000000	      0.00000000	      7.31700027	     12.81992793	      3.51633151	     23.54215989	     89.95437384	      0.00000000	      0.00000000
